# xmcd database file
#
# Track frame offsets:
# 150
# 13980
# 26680
# 38232
# 58912
# 69495
# 78800
# 88872
# 103912
# 119057
# 130315
# 146267
# 152422
# 161825
#
# Disc length: 2328 seconds
#
# Revision: 2
# Processed by: cddbd v1.5PL3 Copyright (c) Steve Scherf et al.
# Submitted via: CD-Runner 2004.04
#
DISCID=c209160e
DTITLE=The Dirdy Birdies Jug Band - Tracks
DYEAR=2001
DGENRE=Folk
TTITLE0=My Gal
TTITLE1=The Old Account
TTITLE2=If Walls Could Talk
TTITLE3=Crazy Blues
TTITLE4=Your Next Boyfriend
TTITLE5=Blues My Naughty Sweetie Gives to Me
TTITLE6=Rose of Old Kentucky
TTITLE7=The Pigeon Song
TTITLE8=Jug Band Music
TTITLE9=Little Sweetheart of the Ozarks
TTITLE10=The Doctor Song
TTITLE11=Masculine Women, Feminine Men
TTITLE12=Shoppin'
TTITLE13=The Bravest Cowboy
EXTD=
EXTT0=
EXTT1=
EXTT2=
EXTT3=
EXTT4=
EXTT5=
EXTT6=
EXTT7=
EXTT8=
EXTT9=
EXTT10=
EXTT11=
EXTT12=
EXTT13=
PLAYORDER=
